<svg width="16" height="16" viewBox="0 0 16 16" fill="none" xmlns="http://www.w3.org/2000/svg">
<path d="M7.13807 1.31316C7.39842 1.01276 7.39842 0.525696 7.13807 0.225297C6.87773 -0.0750991 6.45564 -0.0750991 6.19526 0.225297L2.39054 4.61541H0.666656C0.298471 4.61541 0 4.95979 0 5.38462C0 5.80946 0.298471 6.15385 0.666656 6.15385H15.3333C15.7015 6.15385 16 5.80946 16 5.38462C16 4.95979 15.7015 4.61541 15.3333 4.61541H13.6095L9.80474 0.225297C9.54439 -0.0750991 9.12227 -0.0750991 8.86193 0.225297C8.60158 0.525696 8.60158 1.01276 8.86193 1.31316L11.7239 4.61541H4.27613L7.13807 1.31316Z" fill="white"/>
<path fill-rule="evenodd" clip-rule="evenodd" d="M1.84329 7.38462C1.41797 7.38462 1.09212 7.80972 1.14941 8.28373C1.23118 8.96036 1.29827 9.57901 1.35957 10.1444C1.90767 15.1992 1.9945 16 8 16C14.0055 16 14.0923 15.1992 14.6404 10.1444C14.7017 9.57901 14.7688 8.96036 14.8506 8.28373C14.9079 7.80972 14.582 7.38462 14.1567 7.38462H1.84329ZM6.60717 8.95107C6.22255 8.95107 5.91077 9.30172 5.91077 9.73427V12.8671C5.91077 13.2997 6.22255 13.6503 6.60717 13.6503C6.99178 13.6503 7.30357 13.2997 7.30357 12.8671V9.73427C7.30357 9.30172 6.99178 8.95107 6.60717 8.95107ZM8.69643 9.73423C8.69643 9.30168 9.00822 8.95103 9.39283 8.95103C9.77745 8.95103 10.0892 9.30168 10.0892 9.73427V12.8671C10.0892 13.2997 9.77745 13.6503 9.39283 13.6503C9.00822 13.6503 8.69643 13.2997 8.69643 12.8671V9.73423Z" fill="white"/>
</svg>
